# xmcd CD database file
#
# Track frame offsets:
#	150
#	23082
#	44722
#	73560
#	91352
#	112490
#	135682
#	155987
#	179057
#	201240
#	221035
#	245702
#
# Disc length: 3669 seconds
#
# Revision: 1
# Processed by: cddbd v1.5.2PL0 Copyright (c) Steve Scherf et al.
# Submitted via: CDex 1.51
#
DISCID=c70e530c
DTITLE=Calvin Jackson and Mississippi Bound - Goin' Down South
DYEAR=1995
DGENRE=Blues
TTITLE0=Hard to get along
TTITLE1=Meet me in the bottom
TTITLE2=Goin' down south
TTITLE3=It's gonna rain
TTITLE4=Thin ice
TTITLE5=All nite boogie
TTITLE6=Bright lights big city
TTITLE7=When my first wife left me
TTITLE8=Put it all in there
TTITLE9=Kokomo
TTITLE10=Leaving train blues
TTITLE11=Grinnin'
EXTD=YEAR: 1995
EXTT0=
EXTT1=
EXTT2=
EXTT3=
EXTT4=
EXTT5=
EXTT6=
EXTT7=
EXTT8=
EXTT9=
EXTT10=
EXTT11=
PLAYORDER=
